<svg width="28" height="28" viewBox="0 0 28 28" fill="none" xmlns="http://www.w3.org/2000/svg">
<g filter="url(#filter0_d_3626_86)">
<path fill-rule="evenodd" clip-rule="evenodd" d="M13.1746 11.5252L7.40043 5.75098L5.75051 7.40089L11.5247 13.1751C12.0447 13.8028 12.0721 14.1632 11.5248 14.8249L11.5247 14.825L5.75 20.5997L7.39992 22.2496L13.1746 16.4749C13.8024 15.9549 14.1627 15.9275 14.8245 16.4749L20.5914 22.2418L22.2413 20.5919L16.4743 14.8248C15.9545 14.1972 15.9271 13.8369 16.4744 13.1752L16.4744 13.1751L22.2456 7.40394L20.5957 5.75402L14.8245 11.5252C14.1968 12.0452 13.8364 12.0726 13.1746 11.5252ZM13.9996 12.3501L12.3497 14L13.9918 15.6421L15.6417 13.9922L13.9996 12.3501L14.8245 11.5252L13.9996 12.3501Z" fill="#2C313A"/>
</g>
<defs>
<filter id="filter0_d_3626_86" x="3.75" y="5.75098" width="20.4961" height="20.4987" filterUnits="userSpaceOnUse" color-interpolation-filters="sRGB">
<feFlood flood-opacity="0" result="BackgroundImageFix"/>
<feColorMatrix in="SourceAlpha" type="matrix" values="0 0 0 0 0 0 0 0 0 0 0 0 0 0 0 0 0 0 127 0" result="hardAlpha"/>
<feOffset dy="2"/>
<feGaussianBlur stdDeviation="1"/>
<feComposite in2="hardAlpha" operator="out"/>
<feColorMatrix type="matrix" values="0 0 0 0 1 0 0 0 0 1 0 0 0 0 1 0 0 0 0.4 0"/>
<feBlend mode="normal" in2="BackgroundImageFix" result="effect1_dropShadow_3626_86"/>
<feBlend mode="normal" in="SourceGraphic" in2="effect1_dropShadow_3626_86" result="shape"/>
</filter>
</defs>
</svg>
